# xmcd
#
# Track frame offsets:
#	150
#	24527
#	45065
#	63268
#	96080
#	112710
#	135359
#	162108
#	183284
#	203034
#	229156
#	251537
#	264424
#	284301
#
# Disc length: 4030 seconds
#
# Revision: 0
# Processed by: cddbd v1.5.2PL0 Copyright (c) Steve Scherf et al.
# Submitted via: EasyCDDAExtractor 16.0.8.1
#
DISCID=a80fbc0e
DTITLE=Ripoff Raskolnikov - Lost and Found
DYEAR=2010
DGENRE=blues
TTITLE0=Always On Your Side
TTITLE1=Not To Be
TTITLE2=It's Not Easy
TTITLE3=The Real Thing
TTITLE4=Second Hand Love
TTITLE5=Early Days
TTITLE6=Far Side Of Town
TTITLE7=Waltz In A Minor
TTITLE8=Kiss Me Conny
TTITLE9=You're Gonna Love Me
TTITLE10=Magic
TTITLE11=Walk Walk
TTITLE12=Rainy Day Love
TTITLE13=Sweet Dreams
EXTD=
EXTT0=
EXTT1=
EXTT2=
EXTT3=
EXTT4=
EXTT5=
EXTT6=
EXTT7=
EXTT8=
EXTT9=
EXTT10=
EXTT11=
EXTT12=
EXTT13=
PLAYORDER=
